<svg xmlns="http://www.w3.org/2000/svg" xmlns:xlink="http://www.w3.org/1999/xlink" width="1500" viewBox="0 0 1500 1500" height="1500" version="1.0"><defs><g id="a"><path d="M 37.734375 -57.421875 C 32.265625 -57.421875 28.03125 -55.363281 25.03125 -51.25 C 22.03125 -47.144531 20.53125 -41.421875 20.53125 -34.078125 C 20.53125 -18.796875 26.265625 -11.15625 37.734375 -11.15625 C 42.546875 -11.15625 48.375 -12.359375 55.21875 -14.765625 L 55.21875 -2.578125 C 49.59375 -0.234375 43.3125 0.9375 36.375 0.9375 C 26.40625 0.9375 18.78125 -2.082031 13.5 -8.125 C 8.21875 -14.175781 5.578125 -22.859375 5.578125 -34.171875 C 5.578125 -41.296875 6.875 -47.535156 9.46875 -52.890625 C 12.0625 -58.253906 15.785156 -62.363281 20.640625 -65.21875 C 25.503906 -68.082031 31.203125 -69.515625 37.734375 -69.515625 C 44.390625 -69.515625 51.078125 -67.90625 57.796875 -64.6875 L 53.109375 -52.875 C 50.546875 -54.09375 47.96875 -55.15625 45.375 -56.0625 C 42.78125 -56.96875 40.234375 -57.421875 37.734375 -57.421875 Z M 37.734375 -57.421875"/></g><g id="b"><path d="M 70.828125 -34.359375 C 70.828125 -23.015625 68.015625 -14.296875 62.390625 -8.203125 C 56.765625 -2.109375 48.703125 0.9375 38.203125 0.9375 C 27.703125 0.9375 19.640625 -2.109375 14.015625 -8.203125 C 8.390625 -14.296875 5.578125 -23.046875 5.578125 -34.453125 C 5.578125 -45.859375 8.394531 -54.566406 14.03125 -60.578125 C 19.675781 -66.597656 27.765625 -69.609375 38.296875 -69.609375 C 48.828125 -69.609375 56.878906 -66.578125 62.453125 -60.515625 C 68.035156 -54.453125 70.828125 -45.734375 70.828125 -34.359375 Z M 20.8125 -34.359375 C 20.8125 -26.703125 22.265625 -20.9375 25.171875 -17.0625 C 28.078125 -13.1875 32.421875 -11.25 38.203125 -11.25 C 49.796875 -11.25 55.59375 -18.953125 55.59375 -34.359375 C 55.59375 -49.796875 49.828125 -57.515625 38.296875 -57.515625 C 32.515625 -57.515625 28.15625 -55.566406 25.21875 -51.671875 C 22.28125 -47.785156 20.8125 -42.015625 20.8125 -34.359375 Z M 20.8125 -34.359375"/></g><g id="c"><path d="M 47.71875 -68.53125 L 62.390625 -68.53125 L 39.09375 0 L 23.25 0 L 0 -68.53125 L 14.671875 -68.53125 L 27.5625 -27.75 C 28.28125 -25.34375 29.019531 -22.535156 29.78125 -19.328125 C 30.550781 -16.128906 31.03125 -13.90625 31.21875 -12.65625 C 31.5625 -15.53125 32.734375 -20.5625 34.734375 -27.75 Z M 47.71875 -68.53125"/></g><g id="d"><path d="M 8.625 0 L 8.625 -68.53125 L 23.15625 -68.53125 L 23.15625 0 Z M 8.625 0"/></g><g id="e"><path d="M 65.484375 -34.921875 C 65.484375 -23.640625 62.269531 -15 55.84375 -9 C 49.425781 -3 40.15625 0 28.03125 0 L 8.625 0 L 8.625 -68.53125 L 30.140625 -68.53125 C 41.328125 -68.53125 50.015625 -65.578125 56.203125 -59.671875 C 62.390625 -53.765625 65.484375 -45.515625 65.484375 -34.921875 Z M 50.390625 -34.546875 C 50.390625 -49.265625 43.890625 -56.625 30.890625 -56.625 L 23.15625 -56.625 L 23.15625 -12 L 29.390625 -12 C 43.390625 -12 50.390625 -19.515625 50.390625 -34.546875 Z M 50.390625 -34.546875"/></g><g id="g"><path d="M 23.15625 -36.28125 L 27.9375 -36.28125 C 32.40625 -36.28125 35.75 -37.160156 37.96875 -38.921875 C 40.1875 -40.691406 41.296875 -43.265625 41.296875 -46.640625 C 41.296875 -50.046875 40.363281 -52.5625 38.5 -54.1875 C 36.644531 -55.8125 33.734375 -56.625 29.765625 -56.625 L 23.15625 -56.625 Z M 55.96875 -47.15625 C 55.96875 -39.78125 53.660156 -34.140625 49.046875 -30.234375 C 44.441406 -26.328125 37.890625 -24.375 29.390625 -24.375 L 23.15625 -24.375 L 23.15625 0 L 8.625 0 L 8.625 -68.53125 L 30.515625 -68.53125 C 38.828125 -68.53125 45.144531 -66.738281 49.46875 -63.15625 C 53.800781 -59.582031 55.96875 -54.25 55.96875 -47.15625 Z M 55.96875 -47.15625"/></g><g id="h"><path d="M 36.75 -53.390625 C 38.6875 -53.390625 40.296875 -53.25 41.578125 -52.96875 L 40.5 -39.5625 C 39.34375 -39.875 37.9375 -40.03125 36.28125 -40.03125 C 31.71875 -40.03125 28.160156 -38.859375 25.609375 -36.515625 C 23.066406 -34.171875 21.796875 -30.890625 21.796875 -26.671875 L 21.796875 0 L 7.5 0 L 7.5 -52.40625 L 18.328125 -52.40625 L 20.4375 -43.59375 L 21.140625 -43.59375 C 22.765625 -46.53125 24.957031 -48.894531 27.71875 -50.6875 C 30.488281 -52.488281 33.5 -53.390625 36.75 -53.390625 Z M 36.75 -53.390625"/></g><g id="i"><path d="M 18.890625 -26.296875 C 18.890625 -21.109375 19.738281 -17.1875 21.4375 -14.53125 C 23.144531 -11.875 25.921875 -10.546875 29.765625 -10.546875 C 33.578125 -10.546875 36.316406 -11.863281 37.984375 -14.5 C 39.660156 -17.144531 40.5 -21.078125 40.5 -26.296875 C 40.5 -31.484375 39.65625 -35.375 37.96875 -37.96875 C 36.28125 -40.5625 33.515625 -41.859375 29.671875 -41.859375 C 25.859375 -41.859375 23.109375 -40.566406 21.421875 -37.984375 C 19.734375 -35.410156 18.890625 -31.515625 18.890625 -26.296875 Z M 55.125 -26.296875 C 55.125 -17.765625 52.875 -11.09375 48.375 -6.28125 C 43.875 -1.46875 37.609375 0.9375 29.578125 0.9375 C 24.546875 0.9375 20.109375 -0.160156 16.265625 -2.359375 C 12.421875 -4.566406 9.46875 -7.734375 7.40625 -11.859375 C 5.34375 -15.984375 4.3125 -20.796875 4.3125 -26.296875 C 4.3125 -34.859375 6.546875 -41.515625 11.015625 -46.265625 C 15.484375 -51.015625 21.765625 -53.390625 29.859375 -53.390625 C 34.890625 -53.390625 39.328125 -52.296875 43.171875 -50.109375 C 47.015625 -47.921875 49.96875 -44.78125 52.03125 -40.6875 C 54.09375 -36.59375 55.125 -31.796875 55.125 -26.296875 Z M 55.125 -26.296875"/></g><g id="j"><path d="M 50.578125 0 L 45.609375 -16.3125 L 20.625 -16.3125 L 15.65625 0 L 0 0 L 24.1875 -68.8125 L 41.953125 -68.8125 L 66.234375 0 Z M 42.140625 -28.5 C 37.546875 -43.28125 34.957031 -51.640625 34.375 -53.578125 C 33.800781 -55.515625 33.390625 -57.046875 33.140625 -58.171875 C 32.109375 -54.171875 29.15625 -44.28125 24.28125 -28.5 Z M 42.140625 -28.5"/></g><g id="k"><path d="M 28.78125 0.9375 C 12.46875 0.9375 4.3125 -8.015625 4.3125 -25.921875 C 4.3125 -34.828125 6.53125 -41.628906 10.96875 -46.328125 C 15.40625 -51.035156 21.765625 -53.390625 30.046875 -53.390625 C 36.109375 -53.390625 41.546875 -52.203125 46.359375 -49.828125 L 42.140625 -38.765625 C 39.890625 -39.671875 37.796875 -40.410156 35.859375 -40.984375 C 33.921875 -41.566406 31.984375 -41.859375 30.046875 -41.859375 C 22.609375 -41.859375 18.890625 -36.578125 18.890625 -26.015625 C 18.890625 -15.765625 22.609375 -10.640625 30.046875 -10.640625 C 32.796875 -10.640625 35.34375 -11.003906 37.6875 -11.734375 C 40.03125 -12.472656 42.375 -13.625 44.71875 -15.1875 L 44.71875 -2.953125 C 42.40625 -1.484375 40.066406 -0.46875 37.703125 0.09375 C 35.347656 0.65625 32.375 0.9375 28.78125 0.9375 Z M 28.78125 0.9375"/></g><g id="l"><path d="M 29.578125 -10.453125 C 32.078125 -10.453125 35.078125 -11 38.578125 -12.09375 L 38.578125 -1.453125 C 35.015625 0.140625 30.640625 0.9375 25.453125 0.9375 C 19.734375 0.9375 15.566406 -0.503906 12.953125 -3.390625 C 10.347656 -6.285156 9.046875 -10.625 9.046875 -16.40625 L 9.046875 -41.671875 L 2.203125 -41.671875 L 2.203125 -47.71875 L 10.078125 -52.5 L 14.203125 -63.5625 L 23.34375 -63.5625 L 23.34375 -52.40625 L 38.015625 -52.40625 L 38.015625 -41.671875 L 23.34375 -41.671875 L 23.34375 -16.40625 C 23.34375 -14.375 23.910156 -12.875 25.046875 -11.90625 C 26.191406 -10.9375 27.703125 -10.453125 29.578125 -10.453125 Z M 29.578125 -10.453125"/></g></defs><path fill="#80C341" d="M 664.019531 178.234375 C 695.328125 172.800781 727.507812 169.96875 760.339844 169.96875 C 768.476562 169.96875 776.570312 170.144531 784.621094 170.488281 C 785.269531 167.246094 785.71875 164.050781 785.929688 160.921875 C 788.488281 122.84375 747.707031 111.8125 749.851562 79.988281 C 750.386719 72.03125 753.777344 65.78125 758.835938 60.902344 C 769.332031 50.027344 788.203125 44.460938 809.90625 44.71875 C 812.65625 44.664062 815.105469 44.722656 817.140625 44.859375 C 819.332031 45.007812 821.984375 45.296875 824.941406 45.753906 C 846.589844 48.414062 862.902344 55.675781 871.535156 66.621094 C 876.332031 72.101562 879.171875 78.824219 878.617188 87.007812 C 878.546875 88.050781 878.425781 89.085938 878.253906 90.109375 C 877.863281 93.605469 876.746094 96.9375 875 100.054688 C 863.296875 124.375 827.71875 143.378906 826.351562 163.722656 C 826.167969 166.46875 826.480469 169.9375 827.191406 173.925781 C 853.238281 177.027344 878.738281 181.921875 903.570312 188.480469 C 909.609375 184.359375 917.035156 179.722656 925.941406 174.445312 C 951.699219 159.183594 995.992188 72.925781 987.582031 56.832031 C 961.070312 6.09375 970.59375 -19.328125 1036.847656 6.871094 C 1102.59375 32.867188 1092.777344 56.21875 1038.621094 76.492188 C 1021.441406 82.921875 983.589844 154.550781 1000.121094 204.660156 C 1002.941406 213.207031 1005.183594 220.644531 1006.867188 227.078125 C 1038.9375 242.835938 1069.285156 261.574219 1097.546875 282.925781 C 1122.183594 266.046875 1157.996094 226.722656 1156.671875 215.761719 C 1151.632812 174.003906 1164.726562 157.242188 1203.339844 188.398438 C 1241.65625 219.316406 1228.890625 234.515625 1186.546875 239.382812 C 1174.945312 240.71875 1140.195312 274.644531 1129.898438 309.304688 C 1132.652344 311.726562 1135.386719 314.179688 1138.105469 316.664062 C 1142.398438 297.566406 1143.527344 278.578125 1160.59375 265.195312 C 1168.144531 259.277344 1176.222656 256.988281 1184.277344 257.121094 C 1201.667969 256.785156 1220.367188 267.339844 1235.878906 284.785156 C 1237.917969 286.925781 1239.644531 288.921875 1240.996094 290.648438 C 1242.453125 292.507812 1244.117188 294.84375 1245.851562 297.558594 C 1259.15625 316.871094 1264.457031 335.621094 1260.875 351.199219 C 1259.421875 359.375 1255.429688 366.988281 1247.675781 373.074219 C 1246.6875 373.847656 1245.671875 374.570312 1244.628906 375.25 C 1241.199219 377.726562 1237.386719 379.496094 1233.3125 380.59375 C 1223.546875 383.839844 1212.476562 384.6875 1201.324219 384.84375 C 1216.929688 404.734375 1231.214844 425.710938 1244.050781 447.617188 C 1247.53125 447.648438 1251.234375 447.710938 1255.152344 447.800781 C 1285.742188 448.523438 1380.664062 401.636719 1385.542969 384.496094 C 1400.90625 330.460938 1426.160156 314.867188 1458.695312 369.222656 C 1490.984375 423.164062 1466.957031 436.949219 1410.96875 425.953125 C 1393.210938 422.460938 1313.5625 460.863281 1290.957031 509.367188 C 1287.910156 515.914062 1285.070312 521.722656 1282.410156 526.832031 C 1300.582031 573.390625 1312.695312 622.964844 1317.796875 674.589844 C 1333.152344 680.375 1348.945312 684.339844 1363.238281 684.171875 C 1407.363281 683.648438 1416.359375 635.625 1453.238281 635.191406 C 1462.460938 635.078125 1469.96875 638.421875 1476.054688 643.800781 C 1489.546875 654.90625 1497.6875 676.15625 1499.375 701.207031 C 1499.6875 704.371094 1499.839844 707.207031 1499.871094 709.566406 C 1499.902344 712.105469 1499.808594 715.1875 1499.550781 718.640625 C 1498.464844 743.839844 1491.578125 763.316406 1479.75 774.261719 C 1473.871094 780.292969 1466.378906 784.183594 1456.898438 784.292969 C 1455.691406 784.308594 1454.492188 784.257812 1453.300781 784.152344 C 1449.230469 784.023438 1445.289062 783.042969 1441.53125 781.304688 C 1412.425781 770.039062 1387.273438 730.753906 1363.699219 731.03125 C 1354.253906 731.140625 1337.847656 736.949219 1320.347656 744.539062 C 1318.898438 802.21875 1308.710938 857.746094 1291.0625 909.867188 C 1318.628906 925.089844 1355.039062 938.234375 1363.695312 933.535156 C 1404.574219 911.347656 1426.519531 918.277344 1408.808594 971.339844 C 1391.230469 1023.992188 1370.996094 1016.777344 1350.484375 974.394531 C 1345.808594 964.730469 1312.140625 947.402344 1278.351562 943.738281 C 1258.875 990.914062 1233.132812 1034.855469 1202.15625 1074.535156 C 1215.996094 1089.449219 1230.015625 1101.1875 1236.136719 1100.886719 C 1278.148438 1098.835938 1293.925781 1113.09375 1260.105469 1149.394531 C 1226.539062 1185.417969 1212.285156 1171.597656 1210.449219 1129.007812 C 1210.167969 1122.519531 1200.332031 1108.148438 1185.832031 1094.492188 C 1175.679688 1106.339844 1165.039062 1117.761719 1153.957031 1128.714844 C 1172.101562 1131.714844 1189.9375 1133.046875 1201.75 1148.558594 C 1207.335938 1155.902344 1209.132812 1163.925781 1208.433594 1172.023438 C 1207.5625 1189.472656 1195.355469 1208.679688 1176.25 1224.96875 C 1173.894531 1227.105469 1171.710938 1228.917969 1169.832031 1230.34375 C 1168.917969 1231.042969 1167.894531 1231.789062 1166.78125 1232.5625 C 1180 1258.253906 1197.328125 1282.398438 1206.355469 1283.320312 C 1256.992188 1288.484375 1271.191406 1308 1219.3125 1344.347656 C 1167.828125 1380.421875 1155.308594 1361.703125 1166.78125 1311.574219 C 1169.078125 1301.546875 1156.136719 1272.695312 1134.898438 1249.683594 C 1124.375 1253.300781 1114.558594 1254.382812 1105.898438 1252.761719 C 1097.554688 1251.625 1089.972656 1247.929688 1084.230469 1240.386719 C 1083.496094 1239.421875 1082.824219 1238.4375 1082.195312 1237.414062 C 1079.871094 1234.070312 1078.3125 1230.3125 1077.460938 1226.261719 C 1076.550781 1222.957031 1075.9375 1219.488281 1075.554688 1215.902344 C 1065.984375 1212.886719 1058.925781 1210.070312 1054.050781 1207.285156 C 1026.300781 1224.425781 996.9375 1239.214844 966.238281 1251.367188 C 964.191406 1257.914062 961.5625 1265.46875 958.351562 1274.140625 C 947.757812 1302.761719 967.488281 1400.308594 984.273438 1407.929688 C 1037.203125 1431.976562 1045.789062 1458.480469 977.140625 1479.402344 C 909.019531 1500.167969 901.96875 1475.136719 931.722656 1424.46875 C 941.160156 1408.402344 925.617188 1326.71875 880.933594 1296.859375 C 872.441406 1291.175781 865.378906 1286.160156 859.652344 1281.6875 C 839.144531 1285.363281 818.253906 1287.921875 797.042969 1289.296875 C 794.34375 1295.398438 788.105469 1304.0625 777.984375 1316.414062 C 764.402344 1332.980469 755.546875 1401.960938 765.074219 1410.769531 C 795.101562 1438.550781 794.859375 1458.019531 744.113281 1456.472656 C 693.753906 1454.945312 694.695312 1436.800781 726.105469 1409.9375 C 736.070312 1401.417969 744.140625 1343.871094 720.953125 1314.09375 C 711.742188 1302.265625 706.082031 1293.746094 703.550781 1287.632812 C 687.957031 1286.0625 672.546875 1283.84375 657.382812 1281.023438 C 652.066406 1287.308594 644.597656 1294.945312 634.785156 1304.316406 C 614.445312 1323.753906 588.5625 1413.9375 598.394531 1427.527344 C 629.40625 1470.363281 624.878906 1496.253906 562.640625 1484.339844 C 500.875 1472.515625 505.96875 1448.523438 550.53125 1418.835938 C 557.257812 1414.351562 565.871094 1394.976562 570.65625 1371.140625 C 562.472656 1373.554688 553.050781 1373.378906 543.488281 1370.746094 C 541.617188 1370.3125 539.96875 1369.832031 538.632812 1369.351562 C 537.191406 1368.839844 535.472656 1368.117188 533.601562 1367.191406 C 519.683594 1361.027344 510.609375 1351.664062 507.734375 1340.339844 C 505.972656 1334.582031 505.871094 1328.058594 508.457031 1320.820312 C 508.78125 1319.898438 509.148438 1319 509.539062 1318.109375 C 510.746094 1315.042969 512.40625 1312.242188 514.4375 1309.746094 C 525.527344 1294.609375 545.230469 1284.710938 556.75 1272.828125 C 552.261719 1262.621094 549.660156 1254.871094 548.820312 1249.109375 C 523.878906 1238.917969 499.832031 1226.976562 476.84375 1213.449219 C 471.570312 1218.398438 461.289062 1224.292969 444.832031 1232.328125 C 424.492188 1242.257812 379.265625 1305.308594 382.300781 1318.214844 C 391.878906 1358.910156 380.980469 1377.730469 339.855469 1353.117188 C 299.042969 1328.691406 309.789062 1311.476562 350.535156 1299.652344 C 363.453125 1295.90625 401.75 1243.621094 398.933594 1204.101562 C 397.136719 1178.84375 398.230469 1166.089844 402.839844 1161.441406 C 373.820312 1137.34375 347.269531 1110.375 323.609375 1080.957031 C 319.414062 1083.285156 315.546875 1085.863281 312.128906 1088.714844 C 284.648438 1111.636719 303.855469 1146.777344 280.886719 1165.933594 C 275.140625 1170.726562 268.6875 1172.449219 262.074219 1172.140625 C 247.839844 1171.988281 231.71875 1162.640625 217.6875 1147.578125 C 215.851562 1145.730469 214.289062 1144.003906 213.050781 1142.519531 C 211.714844 1140.917969 210.175781 1138.914062 208.550781 1136.589844 C 196.191406 1120.007812 190.433594 1104.097656 192.203125 1091.078125 C 192.785156 1084.234375 195.484375 1077.929688 201.386719 1073.007812 C 202.136719 1072.378906 202.917969 1071.796875 203.722656 1071.25 C 206.347656 1069.25 209.339844 1067.851562 212.601562 1067.03125 C 236.738281 1059.300781 272.898438 1071.402344 287.582031 1059.152344 C 290.679688 1056.570312 294.171875 1051.992188 297.816406 1046.230469 C 286.996094 1030.433594 276.96875 1014.046875 267.789062 997.15625 C 262.457031 1002.0625 247.835938 999.59375 218.242188 990.210938 C 193.113281 982.246094 110.9375 1004.011719 105.453125 1019.070312 C 88.171875 1066.542969 66.042969 1075.285156 43.910156 1016.109375 C 21.941406 957.378906 42.90625 950.050781 88.070312 973.789062 C 102.390625 981.316406 171.265625 963.945312 194.035156 923.425781 C 206.785156 900.738281 215.425781 889.214844 222.234375 886.375 C 211.695312 850.027344 204.742188 812.179688 201.777344 773.214844 C 171.792969 768.703125 123.914062 771.148438 117.429688 779.332031 C 91.320312 812.304688 70.199219 814.796875 65.148438 765.4375 C 60.140625 716.453125 79.921875 714.824219 113.179688 741.476562 C 122.050781 748.589844 168.3125 749.546875 200.160156 733.824219 C 200.15625 732.636719 200.152344 731.429688 200.152344 730.226562 C 200.152344 700.574219 202.460938 671.453125 206.910156 643.007812 C 201.921875 637.808594 196.160156 631.234375 189.457031 623.195312 C 183.738281 616.332031 170.90625 608.453125 155.625 601.1875 C 133.832031 605.59375 116.628906 621.230469 94.246094 613.359375 C 86.488281 610.636719 81.136719 605.777344 77.554688 599.777344 C 73.761719 593.902344 71.546875 586.6875 70.832031 578.664062 C 70.484375 578.8125 70.171875 578.980469 69.886719 579.15625 C 25.433594 607.273438 0.105469 601.128906 15.996094 539.976562 C 31.609375 479.886719 54.71875 485.761719 80.855469 530.746094 C 88.703125 514.03125 99.210938 502.703125 111.207031 498.253906 C 117.832031 495.40625 125.199219 494.703125 133.171875 497.503906 C 134.183594 497.859375 135.175781 498.261719 136.148438 498.707031 C 139.519531 500.046875 142.546875 502.003906 145.207031 504.484375 C 162.5625 518.839844 172.414062 546.835938 186.289062 560.347656 C 193.960938 559.347656 201.332031 557.515625 208.082031 554.644531 C 217.113281 550.808594 224.808594 547.808594 231.320312 545.621094 C 242.203125 514.464844 255.757812 484.566406 271.714844 456.195312 C 253.582031 443.253906 235.132812 433.324219 228.753906 435.085938 C 188.210938 446.277344 169.695312 435.816406 194.765625 393 C 219.640625 350.507812 236.570312 360.871094 247.671875 402.027344 C 249.550781 409 265.066406 422.871094 285.101562 433.636719 C 303.835938 403.691406 325.324219 375.636719 349.207031 349.835938 C 348.71875 346.71875 348.234375 343.417969 347.742188 339.914062 C 346.746094 332.777344 342.167969 322.628906 335.640625 311.503906 C 328.191406 310.496094 321.214844 308.066406 315.109375 302.195312 C 309.65625 296.957031 307.191406 290.6875 306.730469 284.042969 C 306.324219 280.15625 306.582031 276.058594 307.445312 271.835938 C 292.226562 253.550781 276.824219 239.316406 269.449219 239.371094 C 216.855469 239.777344 198.589844 221.179688 244.371094 177.636719 C 289.804688 134.429688 306.207031 152.398438 304.273438 205.613281 C 304.03125 212.296875 311.347656 225.976562 323.277344 240.527344 C 324.191406 239.378906 325.136719 238.234375 326.113281 237.097656 C 327.746094 235.070312 329.285156 233.328125 330.625 231.933594 C 332.066406 230.433594 333.894531 228.683594 336.027344 226.816406 C 351.152344 212.722656 366.371094 205.300781 379.574219 205.707031 C 386.480469 205.570312 393.085938 207.605469 398.6875 212.992188 C 399.402344 213.675781 400.074219 214.390625 400.710938 215.140625 C 403.011719 217.554688 404.753906 220.402344 405.953125 223.574219 C 414.496094 242.511719 410.894531 270.746094 416.703125 287.859375 C 448.609375 263.03125 483.261719 241.570312 520.128906 224.023438 C 509.886719 200.804688 496.304688 178.476562 489.015625 176.734375 C 448.117188 166.933594 436.964844 148.824219 479.597656 123.457031 C 521.910156 98.28125 531.722656 115.539062 521.554688 156.933594 C 519.53125 165.164062 529.359375 190.789062 545.949219 212.53125 C 560.894531 206.320312 576.175781 200.742188 591.742188 195.832031 C 592.738281 193.957031 593.789062 192.011719 594.886719 189.996094 C 607.640625 166.625 602.320312 80.574219 588.582031 72.09375 C 545.277344 45.355469 541.007812 21.601562 603.542969 11.527344 C 665.605469 1.527344 668.707031 23.835938 636.519531 63.9375 C 626.4375 76.496094 629.832031 146.835938 664.019531 178.234375 Z M 664.019531 178.234375" fill-rule="evenodd"/><path fill="#FFF" d="M 1071.613281 1127.222656 C 1071.613281 1142.621094 1055.3125 1155.074219 1035.210938 1155.074219 C 1035.210938 1155.074219 889.617188 1183.890625 754.738281 1183.890625 C 647.984375 1183.890625 475.578125 1155.074219 475.578125 1155.074219 C 455.496094 1155.074219 439.203125 1142.621094 439.203125 1127.222656 L 439.203125 865.539062 C 439.203125 850.101562 455.496094 837.6875 475.578125 837.6875 C 475.578125 837.6875 640.242188 866.183594 754.738281 864.71875 C 866.3125 863.292969 1035.210938 837.6875 1035.210938 837.6875 C 1055.3125 837.6875 1071.613281 850.101562 1071.613281 865.539062 Z M 1071.613281 1127.222656"/><path fill="#FFF" d="M 484.742188 899.210938 C 484.183594 901.015625 482.1875 902 480.285156 901.410156 L 204.628906 816.703125 C 202.726562 816.113281 201.636719 814.171875 202.191406 812.371094 L 198.488281 781.714844 C 199.046875 779.914062 201.039062 778.929688 202.941406 779.515625 L 490.476562 868.472656 C 492.378906 869.0625 493.46875 871 492.910156 872.804688 Z M 484.742188 899.210938"/><path fill="#FFF" d="M 666.9375 1063.402344 C 667.507812 1065.207031 666.429688 1067.152344 664.53125 1067.75 L 388.8125 1157.128906 C 386.914062 1157.722656 384.910156 1156.75 384.34375 1154.957031 L 361.917969 1130.828125 C 361.351562 1129.023438 362.429688 1127.078125 364.328125 1126.480469 L 654.140625 1034.875 C 656.039062 1034.269531 658.042969 1035.242188 658.609375 1037.046875 Z M 666.9375 1063.402344"/><path fill="#FFF" d="M 1028.25 899.210938 C 1028.808594 901.015625 1030.800781 902 1032.703125 901.410156 L 1313.914062 815.238281 C 1315.816406 814.648438 1315.914062 813.148438 1316.347656 810.90625 L 1320.195312 780.304688 C 1320.296875 778.507812 1320.421875 776.804688 1318.519531 777.394531 L 1022.515625 868.472656 C 1020.613281 869.0625 1019.523438 871 1020.082031 872.804688 Z M 1028.25 899.210938"/><path fill="#FFF" d="M 850.769531 1063.402344 C 850.199219 1065.207031 851.277344 1067.152344 853.179688 1067.75 L 1126.84375 1156.191406 C 1128.746094 1156.796875 1130.738281 1155.820312 1131.304688 1154.019531 L 1155.792969 1130.828125 C 1156.359375 1129.023438 1155.277344 1127.078125 1153.382812 1126.480469 L 863.566406 1034.875 C 861.667969 1034.269531 859.667969 1035.242188 859.097656 1037.046875 Z M 850.769531 1063.402344"/><path fill="#FFF" d="M 495.746094 807.53125 C 360.929688 807.53125 251.191406 697.835938 251.191406 562.9375 C 251.191406 428.078125 360.910156 318.351562 495.746094 318.351562 C 630.574219 318.351562 740.238281 428.117188 740.238281 562.9375 C 740.238281 697.835938 630.574219 807.53125 495.746094 807.53125 Z M 495.746094 807.53125"/><path fill="#231F20" d="M 493.910156 434.625 C 569 434.625 629.855469 495.480469 629.855469 570.546875 C 629.855469 645.609375 569 706.464844 493.910156 706.464844 C 418.851562 706.464844 357.988281 645.609375 357.988281 570.546875 C 357.988281 495.480469 418.851562 434.625 493.910156 434.625 Z M 493.910156 434.625"/><path fill="#FFF" d="M 528.449219 492.269531 C 547.585938 492.269531 563.101562 507.796875 563.101562 526.921875 C 563.101562 546.023438 547.585938 561.617188 528.449219 561.617188 C 509.328125 561.617188 493.785156 546.023438 493.785156 526.921875 C 493.785156 507.796875 509.328125 492.269531 528.449219 492.269531 Z M 528.449219 492.269531"/><path fill="#4EB848" d="M 491.835938 337.351562 C 615.949219 337.351562 716.390625 437.859375 716.390625 561.964844 C 716.390625 609.527344 701.597656 653.644531 676.351562 689.953125 C 635.804688 748.269531 568.304688 786.457031 491.835938 786.457031 C 367.871094 786.457031 267.355469 685.949219 267.355469 561.910156 C 267.34375 437.855469 367.871094 337.351562 491.835938 337.351562 M 491.835938 297.347656 C 346 297.347656 227.339844 416.046875 227.339844 561.910156 C 227.339844 707.765625 346 826.453125 491.835938 826.453125 C 637.714844 826.453125 756.378906 707.765625 756.378906 561.875 C 756.398438 416.007812 637.746094 297.347656 491.835938 297.347656 Z M 491.835938 297.347656"/><path fill="#FFF" d="M 1019.921875 807.53125 C 885.105469 807.53125 775.414062 697.835938 775.414062 562.9375 C 775.414062 428.117188 885.070312 318.351562 1019.921875 318.351562 C 1154.746094 318.351562 1264.503906 428.058594 1264.503906 562.9375 C 1264.503906 697.835938 1154.746094 807.53125 1019.921875 807.53125 Z M 1019.921875 807.53125"/><path fill="#231F20" d="M 1021.757812 434.625 C 1096.839844 434.625 1157.695312 495.480469 1157.695312 570.546875 C 1157.695312 645.65625 1096.839844 706.511719 1021.757812 706.511719 C 946.664062 706.511719 885.796875 645.65625 885.796875 570.546875 C 885.796875 495.480469 946.664062 434.625 1021.757812 434.625 Z M 1021.757812 434.625"/><path fill="#FFF" d="M 987.207031 492.269531 C 1006.351562 492.269531 1021.886719 507.746094 1021.886719 526.921875 C 1021.886719 546.023438 1006.351562 561.617188 987.207031 561.617188 C 968.078125 561.617188 952.550781 546.023438 952.550781 526.921875 C 952.550781 507.746094 968.078125 492.269531 987.207031 492.269531 Z M 987.207031 492.269531"/><path fill="#4EB848" d="M 1023.804688 337.351562 C 1147.777344 337.351562 1248.324219 437.859375 1248.292969 561.910156 C 1248.292969 685.910156 1147.777344 786.457031 1023.804688 786.457031 C 899.746094 786.457031 799.269531 685.878906 799.269531 561.910156 C 799.285156 437.855469 899.714844 337.351562 1023.804688 337.351562 M 1023.804688 297.347656 C 877.925781 297.347656 759.277344 416.011719 759.277344 561.875 C 759.277344 707.765625 877.945312 826.453125 1023.804688 826.453125 C 1169.660156 826.453125 1288.320312 707.765625 1288.320312 561.910156 C 1288.320312 416.046875 1169.660156 297.347656 1023.804688 297.347656 Z M 1023.804688 297.347656"/><g fill="#FF1616"><use x="425.871" y="1034.991" xmlns:xlink="http://www.w3.org/1999/xlink" xlink:href="#a" xlink:type="simple" xlink:actuate="onLoad" xlink:show="embed"/></g><g fill="#FF1616"><use x="487.036" y="1034.991" xmlns:xlink="http://www.w3.org/1999/xlink" xlink:href="#b" xlink:type="simple" xlink:actuate="onLoad" xlink:show="embed"/></g><g fill="#FF1616"><use x="563.432" y="1034.991" xmlns:xlink="http://www.w3.org/1999/xlink" xlink:href="#c" xlink:type="simple" xlink:actuate="onLoad" xlink:show="embed"/></g><g fill="#FF1616"><use x="625.815" y="1034.991" xmlns:xlink="http://www.w3.org/1999/xlink" xlink:href="#d" xlink:type="simple" xlink:actuate="onLoad" xlink:show="embed"/></g><g fill="#FF1616"><use x="657.593" y="1034.991" xmlns:xlink="http://www.w3.org/1999/xlink" xlink:href="#e" xlink:type="simple" xlink:actuate="onLoad" xlink:show="embed"/></g><g fill="#FF1616"><use x="728.647" y="1034.991" xmlns:xlink="http://www.w3.org/1999/xlink" xlink:href="#f" xlink:type="simple" xlink:actuate="onLoad" xlink:show="embed"/></g><g fill="#FF1616"><use x="753.581" y="1034.991" xmlns:xlink="http://www.w3.org/1999/xlink" xlink:href="#g" xlink:type="simple" xlink:actuate="onLoad" xlink:show="embed"/></g><g fill="#FF1616"><use x="813.855" y="1034.991" xmlns:xlink="http://www.w3.org/1999/xlink" xlink:href="#h" xlink:type="simple" xlink:actuate="onLoad" xlink:show="embed"/></g><g fill="#FF1616"><use x="857.443" y="1034.991" xmlns:xlink="http://www.w3.org/1999/xlink" xlink:href="#i" xlink:type="simple" xlink:actuate="onLoad" xlink:show="embed"/></g><g fill="#FF1616"><use x="916.874" y="1034.991" xmlns:xlink="http://www.w3.org/1999/xlink" xlink:href="#j" xlink:type="simple" xlink:actuate="onLoad" xlink:show="embed"/></g><g fill="#FF1616"><use x="983.1" y="1034.991" xmlns:xlink="http://www.w3.org/1999/xlink" xlink:href="#k" xlink:type="simple" xlink:actuate="onLoad" xlink:show="embed"/></g><g fill="#FF1616"><use x="1032.453" y="1034.991" xmlns:xlink="http://www.w3.org/1999/xlink" xlink:href="#l" xlink:type="simple" xlink:actuate="onLoad" xlink:show="embed"/></g></svg>